# xmcd CD database file
#
# Track frame offsets:
#	150
#	5648
#	28825
#	47445
#	66575
#	83568
#	100805
#	125110
#	150130
#	167000
#	173190
#
# Disc length: 2602 seconds
#
# Revision: 0
# Processed by: cddbd v1.5.1PL0 Copyright (c) Steve Scherf et al.
# Submitted via: CDex 1.51
#
DISCID=840a280b
DTITLE=RocketQueen - Ground Zero
DYEAR=2005
DGENRE=Heavy Metal
TTITLE0=Ground Zero
TTITLE1=QueenBee Rocket
TTITLE2=Glory Eyes
TTITLE3=Die For You
TTITLE4=Providence
TTITLE5=Pride
TTITLE6=Cocoon
TTITLE7=Stand Alone
TTITLE8=Black Stars Heaven
TTITLE9=Reminiscence"QueenBee"
TTITLE10=Go Ahead
EXTD=YEAR: 2005
EXTT0=
EXTT1=
EXTT2=
EXTT3=
EXTT4=
EXTT5=
EXTT6=
EXTT7=
EXTT8=
EXTT9=
EXTT10=
PLAYORDER=
